<svg version="1.1" viewBox="0.0 0.0 720.0 720.0" fill="none" stroke="none" stroke-linecap="square" stroke-miterlimit="10" xmlns:xlink="http://www.w3.org/1999/xlink" xmlns="http://www.w3.org/2000/svg"><clipPath id="p.0"><path d="m0 0l720.0 0l0 720.0l-720.0 0l0 -720.0z" clip-rule="nonzero"/></clipPath><g clip-path="url(#p.0)"><path fill="#000000" fill-opacity="0.0" d="m0 0l720.0 0l0 720.0l-720.0 0z" fill-rule="evenodd"/><path fill="#90b6f3" d="m76.563835 428.01236l0 0c-1.4497147 -102.40881 52.45582 -197.63547 141.00763 -249.09657c88.55177 -51.461098 197.97679 -51.15255 286.23694 0.80711365c88.26019 51.95967 141.62787 147.4888 139.60065 249.88782l-283.40906 -5.610718z" fill-rule="evenodd"/><path fill="#000000" fill-opacity="0.0" d="m76.563835 428.01236l0 0c-1.4497147 -102.40881 52.45582 -197.63547 141.00763 -249.09657c88.55177 -51.461098 197.97679 -51.15255 286.23694 0.80711365c88.26019 51.95967 141.62787 147.4888 139.60065 249.88782" fill-rule="evenodd"/><path stroke="#76aafd" stroke-width="8.0" stroke-linejoin="round" stroke-linecap="butt" d="m76.563835 428.01236l0 0c-1.4497147 -102.40881 52.45582 -197.63547 141.00763 -249.09657c88.55177 -51.461098 197.97679 -51.15255 286.23694 0.80711365c88.26019 51.95967 141.62787 147.4888 139.60065 249.88782" fill-rule="evenodd"/><path fill="#000000" fill-opacity="0.0" d="m353.67337 142.306l0 0c30.189697 -16.950897 57.685974 88.095566 62.348022 238.1936l-56.021393 43.500397z" fill-rule="evenodd"/><path fill="#000000" fill-opacity="0.0" d="m353.67337 142.306l0 0c30.189697 -16.950897 57.685974 88.095566 62.348022 238.1936" fill-rule="evenodd"/><path stroke="#c9dcf9" stroke-width="8.0" stroke-linejoin="round" stroke-linecap="butt" d="m353.67337 142.306l0 0c30.189697 -16.950897 57.685974 88.095566 62.348022 238.1936" fill-rule="evenodd"/><path fill="#000000" fill-opacity="0.0" d="m133.78088 404.22418l0 0c8.293625 -148.23781 106.76027 -263.3082 225.63977 -263.6878l0.5793457 283.46362z" fill-rule="evenodd"/><path fill="#000000" fill-opacity="0.0" d="m133.78088 404.22418l0 0c8.293625 -148.23781 106.76027 -263.3082 225.63977 -263.6878" fill-rule="evenodd"/><path stroke="#c9dcf9" stroke-width="8.0" stroke-linejoin="round" stroke-linecap="butt" d="m133.78088 404.22418l0 0c8.293625 -148.23781 106.76027 -263.3082 225.63977 -263.6878" fill-rule="evenodd"/><defs><linearGradient id="p.1" gradientUnits="userSpaceOnUse" gradientTransform="matrix(10.64837439693635 0.0 0.0 10.64837439693635 0.0 0.0)" spreadMethod="pad" x1="7.18752273519667" y1="34.49400090542613" x2="7.187484221807528" y2="45.14237530229283"><stop offset="0.0" stop-color="#3fb137"/><stop offset="1.0" stop-color="#31862b"/></linearGradient></defs><path fill="url(#p.1)" d="m76.53543 424.0l0 0c0 -31.310638 126.91141 -56.6929 283.46457 -56.6929l0 0c156.55316 0 283.46454 25.382263 283.46454 56.6929l0 0c0 31.310638 -126.91138 56.6929 -283.46454 56.6929l0 0c-156.55316 0 -283.46457 -25.382263 -283.46457 -56.6929z" fill-rule="evenodd"/><path stroke="#c9dcf9" stroke-width="8.0" stroke-linejoin="round" stroke-linecap="butt" d="m76.53543 424.0l0 0c0 -31.310638 126.91141 -56.6929 283.46457 -56.6929l0 0c156.55316 0 283.46454 25.382263 283.46454 56.6929l0 0c0 31.310638 -126.91138 56.6929 -283.46454 56.6929l0 0c-156.55316 0 -283.46457 -25.382263 -283.46457 -56.6929z" fill-rule="evenodd"/><defs><linearGradient id="p.2" gradientUnits="userSpaceOnUse" gradientTransform="matrix(10.610463655143676 0.0 0.0 10.610463655143676 0.0 0.0)" spreadMethod="pad" x1="20.84043337898815" y1="34.69322665216333" x2="20.84039472799228" y2="45.30369030723661"><stop offset="0.0" stop-color="#e69138"/><stop offset="1.0" stop-color="#c17b31"/></linearGradient></defs><path fill="url(#p.2)" d="m407.6176 368.1127c111.34552 3.7947998 200.80066 20.44815 227.69452 42.38855c26.893799 21.94043 -13.906738 44.980316 -103.85162 58.6445c-89.944885 13.664185 -211.86685 15.344696 -310.33386 4.277466l138.87334 -49.423218z" fill-rule="evenodd"/><defs><linearGradient id="p.3" gradientUnits="userSpaceOnUse" gradientTransform="matrix(15.955284773591373 0.0 0.0 15.955284773591373 0.0 0.0)" spreadMethod="pad" x1="13.679823617095192" y1="13.733683796148407" x2="13.67976578445644" y2="29.688968569634966"><stop offset="0.0" stop-color="#09aff9"/><stop offset="1.0" stop-color="#078fcc"/></linearGradient></defs><path fill="url(#p.3)" d="m220.46284 473.69595l0 0c-8.318649 -93.429016 7.290802 -188.98538 41.584946 -254.57062l97.95221 204.87466z" fill-rule="evenodd"/><path fill="#000000" fill-opacity="0.0" d="m304.46686 481.04303l0 0c-3.5578613 -86.59183 1.16745 -176.52554 12.777863 -243.19307c11.610443 -66.66754 28.776611 -102.43561 46.419678 -96.72177l-3.6643982 282.87183z" fill-rule="evenodd"/><path fill="#000000" fill-opacity="0.0" d="m304.46686 481.04303l0 0c-3.5578613 -86.59183 1.16745 -176.52554 12.777863 -243.19307c11.610443 -66.66754 28.776611 -102.43561 46.419678 -96.72177" fill-rule="evenodd"/><path stroke="#efefef" stroke-width="8.0" stroke-linejoin="round" stroke-linecap="butt" d="m304.46686 481.04303l0 0c-3.5578613 -86.59183 1.16745 -176.52554 12.777863 -243.19307c11.610443 -66.66754 28.776611 -102.43561 46.419678 -96.72177" fill-rule="evenodd"/><path fill="#000000" fill-opacity="0.0" d="m410.5932 368.21738l0 0c112.17731 4.0696716 201.24774 21.184296 226.07074 43.438843c24.822998 22.254547 -19.432556 45.31772 -112.32568 58.536896c-92.89313 13.219208 -216.3443 14.021606 -313.333 2.036621l148.99477 -48.229736z" fill-rule="evenodd"/><path fill="#000000" fill-opacity="0.0" d="m410.5932 368.21738l0 0c112.17731 4.0696716 201.24774 21.184296 226.07074 43.438843c24.822998 22.254547 -19.432556 45.31772 -112.32568 58.536896c-92.89313 13.219208 -216.3443 14.021606 -313.333 2.036621" fill-rule="evenodd"/><path stroke="#ffec1e" stroke-width="24.0" stroke-linejoin="round" stroke-linecap="butt" d="m410.5932 368.21738l0 0c112.17731 4.0696716 201.24774 21.184296 226.07074 43.438843c24.822998 22.254547 -19.432556 45.31772 -112.32568 58.536896c-92.89313 13.219208 -216.3443 14.021606 -313.333 2.036621" fill-rule="evenodd"/><path fill="#000000" fill-opacity="0.0" d="m361.1186 140.53888l0 0c65.21817 0.40213013 127.140594 35.88388 169.95294 97.38356c42.812378 61.49968 62.369507 143.06288 53.67682 223.8592l-224.74835 -37.781647z" fill-rule="evenodd"/><path fill="#000000" fill-opacity="0.0" d="m361.1186 140.53888l0 0c65.21817 0.40213013 127.140594 35.88388 169.95294 97.38356c42.812378 61.49968 62.369507 143.06288 53.67682 223.8592" fill-rule="evenodd"/><path stroke="#efefef" stroke-width="8.0" stroke-linejoin="round" stroke-linecap="butt" d="m361.1186 140.53888l0 0c65.21817 0.40213013 127.140594 35.88388 169.95294 97.38356c42.812378 61.49968 62.369507 143.06288 53.67682 223.8592" fill-rule="evenodd"/><path fill="#000000" fill-opacity="0.0" d="m219.31067 473.21735l0 0c-88.41907 -10.109955 -142.92264 -28.92978 -142.77493 -49.29956l283.46426 0.082214355z" fill-rule="evenodd"/><path fill="#000000" fill-opacity="0.0" d="m219.31067 473.21735l0 0c-88.41907 -10.109955 -142.92264 -28.92978 -142.77493 -49.29956" fill-rule="evenodd"/><path stroke="#efefef" stroke-width="8.0" stroke-linejoin="round" stroke-linecap="butt" d="m219.31067 473.21735l0 0c-88.41907 -10.109955 -142.92264 -28.92978 -142.77493 -49.29956" fill-rule="evenodd"/><path fill="#000000" fill-opacity="0.0" d="m221.35312 482.8245l0 0c-10.210083 -96.25888 5.2705383 -196.22147 40.897522 -264.0863l97.74936 205.2618z" fill-rule="evenodd"/><path fill="#000000" fill-opacity="0.0" d="m221.35312 482.8245l0 0c-10.210083 -96.25888 5.2705383 -196.22147 40.897522 -264.0863" fill-rule="evenodd"/><path stroke="#ffec1e" stroke-width="24.0" stroke-linejoin="round" stroke-linecap="butt" d="m221.35312 482.82452l0 0c-5.1050415 -48.129486 -3.7874146 -97.184845 3.2598724 -142.69092c3.5236206 -22.753082 8.479675 -44.618835 14.781494 -65.03784l0.4364624 -1.4017944" fill-rule="evenodd"/><path fill="#ffec1e" stroke="#ffec1e" stroke-width="24.0" stroke-linecap="butt" d="m239.83095 273.694l7.61261 18.103851l1.5540161 -40.57335l-27.270493 30.082108z" fill-rule="evenodd"/><path fill="#000000" fill-opacity="0.0" d="m642.4102 419.1148l0 0c9.2352295 21.355377 -42.54077 41.926453 -133.80872 53.163452c-91.267944 11.236969 -206.42004 11.218201 -297.59625 -0.04852295l148.99477 -48.229736z" fill-rule="evenodd"/><path fill="#000000" fill-opacity="0.0" d="m642.4102 419.1148l0 0c9.2352295 21.355377 -42.54077 41.926453 -133.80872 53.163452c-91.267944 11.236969 -206.42004 11.218201 -297.59625 -0.04852295" fill-rule="evenodd"/><path stroke="#ffec1e" stroke-width="24.0" stroke-linejoin="round" stroke-linecap="butt" d="m642.4102 419.1148l0 0c9.2352295 21.355377 -42.54077 41.926453 -133.80872 53.163452c-91.267944 11.236969 -206.42004 11.218201 -297.59625 -0.04852295" fill-rule="evenodd"/></g></svg>